<svg width="701" height="488" viewBox="0 0 701 488" fill="none" xmlns="http://www.w3.org/2000/svg">
<path d="M0 39.6436C0 17.7491 17.7491 0 39.6437 0H661.356C683.251 0 701 17.7491 701 39.6436V447.973C701 469.868 683.251 487.617 661.356 487.617H39.6436C17.749 487.617 0 469.868 0 447.973V39.6436Z" fill="url(#paint0_linear)"/>
<path fill-rule="evenodd" clip-rule="evenodd" d="M661.356 1.32146H39.6437C18.4789 1.32146 1.32146 18.4789 1.32146 39.6436V447.973C1.32146 469.138 18.4789 486.295 39.6436 486.295H661.356C682.521 486.295 699.679 469.138 699.679 447.973V39.6436C699.679 18.4789 682.521 1.32146 661.356 1.32146ZM39.6437 0C17.7491 0 0 17.7491 0 39.6436V447.973C0 469.868 17.749 487.617 39.6436 487.617H661.356C683.251 487.617 701 469.868 701 447.973V39.6436C701 17.7491 683.251 0 661.356 0H39.6437Z" fill="#7C7C7C"/>
<path d="M688.83 245.431C688.83 253.273 682.473 259.63 674.631 259.63C666.79 259.63 660.433 253.273 660.433 245.431C660.433 237.59 666.79 231.233 674.631 231.233C682.473 231.233 688.83 237.59 688.83 245.431Z" fill="url(#paint1_linear)" fill-opacity="0.85"/>
<path fill-rule="evenodd" clip-rule="evenodd" d="M674.631 258.308C681.743 258.308 687.508 252.543 687.508 245.431C687.508 238.32 681.743 232.554 674.631 232.554C667.519 232.554 661.754 238.32 661.754 245.431C661.754 252.543 667.519 258.308 674.631 258.308ZM674.631 259.63C682.473 259.63 688.83 253.273 688.83 245.431C688.83 237.59 682.473 231.233 674.631 231.233C666.79 231.233 660.433 237.59 660.433 245.431C660.433 253.273 666.79 259.63 674.631 259.63Z" fill="#676767"/>
<path d="M34.8878 246.243C34.8878 248.259 33.2532 249.894 31.2367 249.894C29.2203 249.894 27.5857 248.259 27.5857 246.243C27.5857 244.226 29.2203 242.592 31.2367 242.592C33.2532 242.592 34.8878 244.226 34.8878 246.243Z" fill="#070505"/>
<path d="M61.662 27.2983H641.772V461.367H61.662V27.2983Z" fill="white"/>
<path d="M62.1084 27.7505H642.227V461.188H62.1084V27.7505Z" fill="white"/>
<path d="M280.756 212.252L274.4 188.202H279.107L283.436 207.339L288.521 188.202H293.366L298.313 207.339L302.642 188.202H307.384L300.856 212.252H295.633L290.858 194.421L285.944 212.252H280.756Z" fill="#4B4B4B"/>
<path d="M316.936 212.665C315.218 212.665 313.695 212.298 312.367 211.565C311.038 210.832 309.996 209.801 309.24 208.473C308.484 207.144 308.106 205.61 308.106 203.869C308.106 202.105 308.473 200.536 309.206 199.162C309.962 197.788 310.992 196.723 312.298 195.967C313.626 195.188 315.184 194.799 316.971 194.799C318.643 194.799 320.12 195.165 321.403 195.898C322.685 196.631 323.682 197.639 324.392 198.921C325.125 200.181 325.491 201.59 325.491 203.147C325.491 203.399 325.48 203.663 325.457 203.938C325.457 204.213 325.446 204.499 325.423 204.797H312.47C312.561 206.125 313.019 207.167 313.844 207.923C314.692 208.679 315.711 209.057 316.902 209.057C317.795 209.057 318.54 208.862 319.135 208.473C319.754 208.061 320.212 207.534 320.509 206.892H324.976C324.655 207.969 324.117 208.954 323.361 209.847C322.628 210.718 321.712 211.405 320.612 211.909C319.536 212.413 318.311 212.665 316.936 212.665ZM316.971 198.372C315.894 198.372 314.943 198.681 314.119 199.299C313.294 199.895 312.767 200.811 312.538 202.048H321.025C320.956 200.926 320.544 200.032 319.788 199.368C319.032 198.704 318.093 198.372 316.971 198.372Z" fill="#4B4B4B"/>
<path d="M329.19 212.252V187.515H333.588V212.252H329.19Z" fill="#4B4B4B"/>
<path d="M346.431 212.665C344.69 212.665 343.155 212.287 341.827 211.531C340.498 210.775 339.444 209.721 338.666 208.37C337.91 207.018 337.532 205.472 337.532 203.732C337.532 201.991 337.91 200.445 338.666 199.093C339.444 197.742 340.498 196.688 341.827 195.932C343.155 195.176 344.69 194.799 346.431 194.799C348.607 194.799 350.439 195.371 351.928 196.516C353.417 197.639 354.367 199.196 354.779 201.189H350.141C349.912 200.364 349.454 199.723 348.767 199.265C348.103 198.784 347.312 198.544 346.396 198.544C345.182 198.544 344.151 199.002 343.304 199.918C342.456 200.834 342.033 202.105 342.033 203.732C342.033 205.358 342.456 206.629 343.304 207.545C344.151 208.461 345.182 208.92 346.396 208.92C347.312 208.92 348.103 208.691 348.767 208.232C349.454 207.774 349.912 207.122 350.141 206.274H354.779C354.367 208.198 353.417 209.744 351.928 210.912C350.439 212.08 348.607 212.665 346.431 212.665Z" fill="#4B4B4B"/>
<path d="M366.86 212.665C365.211 212.665 363.722 212.287 362.394 211.531C361.088 210.775 360.046 209.733 359.267 208.404C358.511 207.053 358.133 205.495 358.133 203.732C358.133 201.968 358.523 200.422 359.301 199.093C360.08 197.742 361.122 196.688 362.428 195.932C363.756 195.176 365.245 194.799 366.894 194.799C368.521 194.799 369.987 195.176 371.292 195.932C372.621 196.688 373.663 197.742 374.419 199.093C375.198 200.422 375.587 201.968 375.587 203.732C375.587 205.495 375.198 207.053 374.419 208.404C373.663 209.733 372.621 210.775 371.292 211.531C369.964 212.287 368.486 212.665 366.86 212.665ZM366.86 208.851C368.005 208.851 369.002 208.427 369.849 207.58C370.697 206.709 371.12 205.427 371.12 203.732C371.12 202.037 370.697 200.765 369.849 199.918C369.002 199.047 368.017 198.612 366.894 198.612C365.726 198.612 364.718 199.047 363.871 199.918C363.046 200.765 362.634 202.037 362.634 203.732C362.634 205.427 363.046 206.709 363.871 207.58C364.718 208.427 365.715 208.851 366.86 208.851Z" fill="#4B4B4B"/>
<path d="M379.519 212.252V195.211H383.401L383.779 197.513C384.329 196.688 385.051 196.035 385.944 195.554C386.86 195.05 387.914 194.799 389.105 194.799C391.739 194.799 393.606 195.818 394.705 197.856C395.324 196.917 396.148 196.173 397.179 195.623C398.233 195.073 399.378 194.799 400.615 194.799C402.837 194.799 404.543 195.463 405.734 196.791C406.925 198.12 407.521 200.067 407.521 202.632V212.252H403.123V203.044C403.123 201.578 402.837 200.456 402.264 199.677C401.714 198.899 400.855 198.509 399.687 198.509C398.496 198.509 397.534 198.944 396.801 199.815C396.091 200.685 395.736 201.899 395.736 203.457V212.252H391.338V203.044C391.338 201.578 391.052 200.456 390.479 199.677C389.907 198.899 389.025 198.509 387.834 198.509C386.665 198.509 385.715 198.944 384.982 199.815C384.272 200.685 383.917 201.899 383.917 203.457V212.252H379.519Z" fill="#4B4B4B"/>
<path d="M419.976 212.665C418.258 212.665 416.735 212.298 415.407 211.565C414.078 210.832 413.036 209.801 412.28 208.473C411.524 207.144 411.146 205.61 411.146 203.869C411.146 202.105 411.513 200.536 412.246 199.162C413.002 197.788 414.032 196.723 415.338 195.967C416.666 195.188 418.224 194.799 420.011 194.799C421.683 194.799 423.16 195.165 424.443 195.898C425.725 196.631 426.722 197.639 427.432 198.921C428.165 200.181 428.531 201.59 428.531 203.147C428.531 203.399 428.52 203.663 428.497 203.938C428.497 204.213 428.485 204.499 428.463 204.797H415.51C415.601 206.125 416.059 207.167 416.884 207.923C417.731 208.679 418.751 209.057 419.942 209.057C420.835 209.057 421.58 208.862 422.175 208.473C422.793 208.061 423.252 207.534 423.549 206.892H428.016C427.695 207.969 427.157 208.954 426.401 209.847C425.668 210.718 424.752 211.405 423.652 211.909C422.576 212.413 421.35 212.665 419.976 212.665ZM420.011 198.372C418.934 198.372 417.983 198.681 417.159 199.299C416.334 199.895 415.807 200.811 415.578 202.048H424.065C423.996 200.926 423.584 200.032 422.828 199.368C422.072 198.704 421.133 198.372 420.011 198.372Z" fill="#4B4B4B"/>
<path d="M239.183 266.195C239.183 260.356 243.916 255.623 249.755 255.623H454.581C460.419 255.623 465.152 260.356 465.152 266.195V287.21C465.152 293.048 460.419 297.781 454.581 297.781H249.755C243.916 297.781 239.183 293.048 239.183 287.21V266.195Z" fill="#6A80FB"/>
<path d="M328.801 283.346V270.395H333.999C335.344 270.395 336.367 270.71 337.07 271.339C337.786 271.956 338.143 272.751 338.143 273.725C338.143 274.539 337.921 275.193 337.477 275.687C337.046 276.168 336.515 276.494 335.886 276.667C336.626 276.815 337.237 277.185 337.718 277.777C338.199 278.357 338.439 279.035 338.439 279.812C338.439 280.836 338.069 281.681 337.329 282.347C336.589 283.013 335.541 283.346 334.184 283.346H328.801ZM331.169 275.835H333.648C334.314 275.835 334.826 275.68 335.183 275.372C335.541 275.064 335.72 274.626 335.72 274.058C335.72 273.516 335.541 273.09 335.183 272.782C334.838 272.461 334.314 272.301 333.611 272.301H331.169V275.835ZM331.169 281.422H333.814C334.517 281.422 335.06 281.261 335.442 280.941C335.837 280.608 336.034 280.145 336.034 279.553C336.034 278.949 335.831 278.474 335.424 278.129C335.017 277.783 334.468 277.611 333.777 277.611H331.169V281.422Z" fill="white"/>
<path d="M344.875 283.568C343.95 283.568 343.13 283.37 342.414 282.976C341.699 282.581 341.138 282.026 340.731 281.311C340.324 280.595 340.12 279.769 340.12 278.832C340.12 277.882 340.318 277.037 340.712 276.297C341.119 275.557 341.674 274.983 342.377 274.576C343.093 274.157 343.931 273.947 344.894 273.947C345.794 273.947 346.589 274.145 347.28 274.539C347.971 274.934 348.507 275.477 348.89 276.168C349.284 276.846 349.482 277.604 349.482 278.443C349.482 278.579 349.475 278.721 349.463 278.869C349.463 279.017 349.457 279.171 349.445 279.331H342.47C342.519 280.046 342.766 280.608 343.21 281.015C343.666 281.422 344.215 281.625 344.857 281.625C345.338 281.625 345.738 281.52 346.059 281.311C346.392 281.089 346.639 280.805 346.799 280.46H349.204C349.031 281.039 348.742 281.57 348.335 282.051C347.94 282.519 347.447 282.889 346.855 283.161C346.275 283.432 345.615 283.568 344.875 283.568ZM344.894 275.872C344.314 275.872 343.802 276.038 343.358 276.371C342.914 276.692 342.63 277.185 342.507 277.851H347.077C347.04 277.247 346.818 276.766 346.411 276.408C346.004 276.05 345.498 275.872 344.894 275.872Z" fill="white"/>
<path d="M355.16 280.608C354.716 280.608 354.302 280.558 353.92 280.46L353.236 281.144C353.445 281.255 353.729 281.348 354.087 281.422C354.444 281.496 355.024 281.57 355.826 281.644C357.047 281.755 357.935 282.044 358.49 282.513C359.045 282.982 359.322 283.629 359.322 284.456C359.322 284.998 359.174 285.51 358.878 285.991C358.582 286.485 358.126 286.879 357.509 287.175C356.892 287.484 356.103 287.638 355.141 287.638C353.834 287.638 352.779 287.391 351.978 286.898C351.176 286.417 350.775 285.689 350.775 284.715C350.775 283.888 351.176 283.173 351.978 282.569C351.731 282.458 351.515 282.34 351.33 282.217C351.157 282.094 351.003 281.964 350.868 281.829V281.403L352.477 279.701C351.762 279.072 351.404 278.264 351.404 277.278C351.404 276.661 351.552 276.1 351.848 275.594C352.156 275.088 352.588 274.687 353.143 274.391C353.698 274.095 354.37 273.947 355.16 273.947C355.678 273.947 356.159 274.021 356.603 274.169H360.081V275.613L358.508 275.724C358.755 276.192 358.878 276.71 358.878 277.278C358.878 277.894 358.73 278.455 358.434 278.961C358.138 279.467 357.706 279.868 357.139 280.164C356.584 280.46 355.924 280.608 355.16 280.608ZM355.16 278.795C355.641 278.795 356.035 278.665 356.344 278.406C356.664 278.147 356.825 277.777 356.825 277.296C356.825 276.815 356.664 276.445 356.344 276.186C356.035 275.927 355.641 275.798 355.16 275.798C354.654 275.798 354.247 275.927 353.939 276.186C353.63 276.445 353.476 276.815 353.476 277.296C353.476 277.777 353.63 278.147 353.939 278.406C354.247 278.665 354.654 278.795 355.16 278.795ZM352.94 284.474C352.94 284.931 353.149 285.27 353.569 285.492C354 285.726 354.524 285.843 355.141 285.843C355.733 285.843 356.214 285.72 356.584 285.473C356.954 285.239 357.139 284.918 357.139 284.511C357.139 284.178 357.016 283.901 356.769 283.679C356.535 283.457 356.06 283.321 355.345 283.272C354.839 283.235 354.37 283.179 353.939 283.105C353.581 283.302 353.322 283.518 353.162 283.753C353.014 283.987 352.94 284.228 352.94 284.474Z" fill="white"/>
<path d="M363.084 272.745C362.652 272.745 362.295 272.615 362.011 272.356C361.74 272.097 361.604 271.771 361.604 271.376C361.604 270.981 361.74 270.661 362.011 270.414C362.295 270.155 362.652 270.025 363.084 270.025C363.516 270.025 363.867 270.155 364.139 270.414C364.422 270.661 364.564 270.981 364.564 271.376C364.564 271.771 364.422 272.097 364.139 272.356C363.867 272.615 363.516 272.745 363.084 272.745ZM361.9 283.346V274.169H364.268V283.346H361.9Z" fill="white"/>
<path d="M366.74 283.346V274.169H368.83L369.015 275.724C369.299 275.181 369.706 274.749 370.236 274.428C370.779 274.108 371.414 273.947 372.142 273.947C373.276 273.947 374.158 274.305 374.787 275.02C375.416 275.736 375.731 276.784 375.731 278.166V283.346H373.363V278.388C373.363 277.598 373.202 276.994 372.882 276.575C372.561 276.155 372.062 275.946 371.383 275.946C370.717 275.946 370.168 276.18 369.737 276.649C369.317 277.117 369.108 277.771 369.108 278.61V283.346H366.74Z" fill="white"/>
<defs>
<linearGradient id="paint0_linear" x1="350.5" y1="0" x2="350.5" y2="487.617" gradientUnits="userSpaceOnUse">
<stop stop-color="#252525"/>
<stop offset="1" stop-color="#1C1C1C"/>
</linearGradient>
<linearGradient id="paint1_linear" x1="674.631" y1="231.233" x2="674.631" y2="259.63" gradientUnits="userSpaceOnUse">
<stop/>
<stop offset="0.9999" stop-opacity="0.765625"/>
<stop offset="1" stop-opacity="0"/>
</linearGradient>
</defs>
</svg>
