<svg width="47" height="47" viewBox="0 0 47 47" fill="none" xmlns="http://www.w3.org/2000/svg">
<path d="M29.4167 45.6788C29.7753 34.4483 29.0221 34.3015 27.8386 33.1638C30.8034 33.017 36.9986 31.659 38.0602 27.4017C39.3872 22.0801 38.8133 19.6211 36.3386 16.7217C36.6973 15.5595 37.1348 12.6039 36.0158 10.0788C35.0833 9.74854 32.8238 10.4092 29.4884 12.7213C27.3843 12.1096 22.1145 11.1946 17.5812 12.7213C16.0509 11.6325 12.5887 9.57972 10.982 10.0788C10.5157 11.3022 9.81995 14.3362 10.7668 16.685C9.70279 17.5169 7.80433 20.3625 8.72248 25.0895C9.87016 30.9984 12.9546 32.5766 19.1234 33.1638C18.7288 33.5308 17.9398 34.6978 17.6529 36.4301C16.4693 37.0051 13.6719 37.7 11.9503 35.8796C10.3364 34.3749 10.3005 32.393 6.92922 31.8425C6.35538 31.8914 5.45158 32.1802 6.42711 32.9435C7.64652 33.8978 8.36382 33.9712 9.47564 36.7237C10.5875 39.4763 12.0938 39.513 13.1698 39.8066C14.2457 40.1002 16.1824 40.2103 17.6529 39.8066C17.6529 44.8346 18.0833 47 16.5411 47C15.3851 47 13.181 45.7543 11.771 44.9447C3.94384 40.4512 1.15057 32.8126 0.330029 28.2826C-2.53918 7.17952 14.0305 0.353097 21.7415 0.0228027C31.0306 -0.375086 41.4197 4.4269 45.4125 14.9968C48.7121 23.7316 47.1491 36.2516 38.0602 43.1097C30.9589 48.468 29.3091 47.0367 29.4167 45.6788Z" fill="white"/>
</svg>
