<svg width="357" height="110" viewBox="0 0 357 110" fill="none" xmlns="http://www.w3.org/2000/svg">
<path d="M2.82523 104L7.94523 90H10.8252L15.9452 104H13.2252L12.1052 100.76H6.64523L5.50523 104H2.82523ZM7.34523 98.76H11.4052L9.36523 92.94L7.34523 98.76ZM22.4543 108.4V94.08H24.7343L25.0143 95.5C25.3343 95.06 25.7543 94.6733 26.2743 94.34C26.8076 94.0067 27.4943 93.84 28.3343 93.84C29.2676 93.84 30.101 94.0667 30.8343 94.52C31.5676 94.9733 32.1476 95.5933 32.5743 96.38C33.001 97.1667 33.2143 98.06 33.2143 99.06C33.2143 100.06 33.001 100.953 32.5743 101.74C32.1476 102.513 31.5676 103.127 30.8343 103.58C30.101 104.02 29.2676 104.24 28.3343 104.24C27.5876 104.24 26.9343 104.1 26.3743 103.82C25.8143 103.54 25.361 103.147 25.0143 102.64V108.4H22.4543ZM27.7943 102C28.6076 102 29.281 101.727 29.8143 101.18C30.3476 100.633 30.6143 99.9267 30.6143 99.06C30.6143 98.1933 30.3476 97.48 29.8143 96.92C29.281 96.36 28.6076 96.08 27.7943 96.08C26.9676 96.08 26.2876 96.36 25.7543 96.92C25.2343 97.4667 24.9743 98.1733 24.9743 99.04C24.9743 99.9067 25.2343 100.62 25.7543 101.18C26.2876 101.727 26.9676 102 27.7943 102ZM40.3212 104.24C39.3212 104.24 38.4345 104.027 37.6612 103.6C36.8878 103.173 36.2812 102.573 35.8412 101.8C35.4012 101.027 35.1812 100.133 35.1812 99.12C35.1812 98.0933 35.3945 97.18 35.8212 96.38C36.2612 95.58 36.8612 94.96 37.6212 94.52C38.3945 94.0667 39.3012 93.84 40.3412 93.84C41.3145 93.84 42.1745 94.0533 42.9212 94.48C43.6678 94.9067 44.2478 95.4933 44.6612 96.24C45.0878 96.9733 45.3012 97.7933 45.3012 98.7C45.3012 98.8467 45.2945 99 45.2812 99.16C45.2812 99.32 45.2745 99.4867 45.2612 99.66H37.7212C37.7745 100.433 38.0412 101.04 38.5212 101.48C39.0145 101.92 39.6078 102.14 40.3012 102.14C40.8212 102.14 41.2545 102.027 41.6012 101.8C41.9612 101.56 42.2278 101.253 42.4012 100.88H45.0012C44.8145 101.507 44.5012 102.08 44.0612 102.6C43.6345 103.107 43.1012 103.507 42.4612 103.8C41.8345 104.093 41.1212 104.24 40.3212 104.24ZM40.3412 95.92C39.7145 95.92 39.1612 96.1 38.6812 96.46C38.2012 96.8067 37.8945 97.34 37.7612 98.06H42.7012C42.6612 97.4067 42.4212 96.8867 41.9812 96.5C41.5412 96.1133 40.9945 95.92 40.3412 95.92ZM47.4543 104V94.08H49.7343L49.9743 95.94C50.3343 95.3 50.821 94.7933 51.4343 94.42C52.061 94.0333 52.7943 93.84 53.6343 93.84V96.54H52.9143C52.3543 96.54 51.8543 96.6267 51.4143 96.8C50.9743 96.9733 50.6276 97.2733 50.3743 97.7C50.1343 98.1267 50.0143 98.72 50.0143 99.48V104H47.4543ZM59.484 104.24C58.604 104.24 57.8307 104.1 57.164 103.82C56.4973 103.527 55.964 103.127 55.564 102.62C55.164 102.113 54.924 101.527 54.844 100.86H57.424C57.504 101.247 57.7173 101.58 58.064 101.86C58.424 102.127 58.884 102.26 59.444 102.26C60.004 102.26 60.4107 102.147 60.664 101.92C60.9307 101.693 61.064 101.433 61.064 101.14C61.064 100.713 60.8773 100.427 60.504 100.28C60.1307 100.12 59.6107 99.9667 58.944 99.82C58.5173 99.7267 58.084 99.6133 57.644 99.48C57.204 99.3467 56.7973 99.18 56.424 98.98C56.064 98.7667 55.7707 98.5 55.544 98.18C55.3173 97.8467 55.204 97.44 55.204 96.96C55.204 96.08 55.5507 95.34 56.244 94.74C56.9507 94.14 57.9373 93.84 59.204 93.84C60.3773 93.84 61.3107 94.1133 62.004 94.66C62.7107 95.2067 63.1307 95.96 63.264 96.92H60.844C60.6973 96.1867 60.144 95.82 59.184 95.82C58.704 95.82 58.3307 95.9133 58.064 96.1C57.8107 96.2867 57.684 96.52 57.684 96.8C57.684 97.0933 57.8773 97.3267 58.264 97.5C58.6507 97.6733 59.164 97.8333 59.804 97.98C60.4973 98.14 61.1307 98.32 61.704 98.52C62.2907 98.7067 62.7573 98.9933 63.104 99.38C63.4507 99.7533 63.624 100.293 63.624 101C63.6373 101.613 63.4773 102.167 63.144 102.66C62.8107 103.153 62.3307 103.54 61.704 103.82C61.0773 104.1 60.3373 104.24 59.484 104.24ZM70.6518 104.24C69.6918 104.24 68.8251 104.02 68.0518 103.58C67.2918 103.14 66.6851 102.533 66.2318 101.76C65.7918 100.973 65.5718 100.067 65.5718 99.04C65.5718 98.0133 65.7985 97.1133 66.2518 96.34C66.7051 95.5533 67.3118 94.94 68.0718 94.5C68.8451 94.06 69.7118 93.84 70.6718 93.84C71.6185 93.84 72.4718 94.06 73.2318 94.5C74.0051 94.94 74.6118 95.5533 75.0518 96.34C75.5051 97.1133 75.7318 98.0133 75.7318 99.04C75.7318 100.067 75.5051 100.973 75.0518 101.76C74.6118 102.533 74.0051 103.14 73.2318 103.58C72.4585 104.02 71.5985 104.24 70.6518 104.24ZM70.6518 102.02C71.3185 102.02 71.8985 101.773 72.3918 101.28C72.8851 100.773 73.1318 100.027 73.1318 99.04C73.1318 98.0533 72.8851 97.3133 72.3918 96.82C71.8985 96.3133 71.3251 96.06 70.6718 96.06C69.9918 96.06 69.4051 96.3133 68.9118 96.82C68.4318 97.3133 68.1918 98.0533 68.1918 99.04C68.1918 100.027 68.4318 100.773 68.9118 101.28C69.4051 101.773 69.9851 102.02 70.6518 102.02ZM78.0207 104V94.08H80.2807L80.4807 95.76C80.7874 95.1733 81.2274 94.7067 81.8007 94.36C82.3874 94.0133 83.074 93.84 83.8607 93.84C85.0874 93.84 86.0407 94.2267 86.7207 95C87.4007 95.7733 87.7407 96.9067 87.7407 98.4V104H85.1807V98.64C85.1807 97.7867 85.0074 97.1333 84.6607 96.68C84.314 96.2267 83.774 96 83.0407 96C82.3207 96 81.7274 96.2533 81.2607 96.76C80.8074 97.2667 80.5807 97.9733 80.5807 98.88V104H78.0207ZM93.6087 104.24C92.7553 104.24 92.0553 104.107 91.5087 103.84C90.962 103.56 90.5553 103.193 90.2887 102.74C90.022 102.287 89.8887 101.787 89.8887 101.24C89.8887 100.32 90.2487 99.5733 90.9687 99C91.6887 98.4267 92.7687 98.14 94.2087 98.14H96.7287V97.9C96.7287 97.22 96.5353 96.72 96.1487 96.4C95.762 96.08 95.282 95.92 94.7087 95.92C94.1887 95.92 93.7353 96.0467 93.3487 96.3C92.962 96.54 92.722 96.9 92.6287 97.38H90.1287C90.1953 96.66 90.4353 96.0333 90.8487 95.5C91.2753 94.9667 91.822 94.56 92.4887 94.28C93.1553 93.9867 93.902 93.84 94.7287 93.84C96.142 93.84 97.2553 94.1933 98.0687 94.9C98.882 95.6067 99.2887 96.6067 99.2887 97.9V104H97.1087L96.8687 102.4C96.5753 102.933 96.162 103.373 95.6287 103.72C95.1087 104.067 94.4353 104.24 93.6087 104.24ZM94.1887 102.24C94.922 102.24 95.4887 102 95.8887 101.52C96.302 101.04 96.562 100.447 96.6687 99.74H94.4887C93.8087 99.74 93.322 99.8667 93.0287 100.12C92.7353 100.36 92.5887 100.66 92.5887 101.02C92.5887 101.407 92.7353 101.707 93.0287 101.92C93.322 102.133 93.7087 102.24 94.1887 102.24ZM101.732 104V89.6H104.292V104H101.732ZM108.287 92.54C107.821 92.54 107.434 92.4 107.127 92.12C106.834 91.84 106.687 91.4867 106.687 91.06C106.687 90.6333 106.834 90.2867 107.127 90.02C107.434 89.74 107.821 89.6 108.287 89.6C108.754 89.6 109.134 89.74 109.427 90.02C109.734 90.2867 109.887 90.6333 109.887 91.06C109.887 91.4867 109.734 91.84 109.427 92.12C109.134 92.4 108.754 92.54 108.287 92.54ZM107.007 104V94.08H109.567V104H107.007ZM111.599 104V101.94L116.659 96.2H111.659V94.08H119.579V96.14L114.439 101.88H119.679V104H111.599ZM126.63 104.24C125.63 104.24 124.743 104.027 123.97 103.6C123.196 103.173 122.59 102.573 122.15 101.8C121.71 101.027 121.49 100.133 121.49 99.12C121.49 98.0933 121.703 97.18 122.13 96.38C122.57 95.58 123.17 94.96 123.93 94.52C124.703 94.0667 125.61 93.84 126.65 93.84C127.623 93.84 128.483 94.0533 129.23 94.48C129.976 94.9067 130.556 95.4933 130.97 96.24C131.396 96.9733 131.61 97.7933 131.61 98.7C131.61 98.8467 131.603 99 131.59 99.16C131.59 99.32 131.583 99.4867 131.57 99.66H124.03C124.083 100.433 124.35 101.04 124.83 101.48C125.323 101.92 125.916 102.14 126.61 102.14C127.13 102.14 127.563 102.027 127.91 101.8C128.27 101.56 128.536 101.253 128.71 100.88H131.31C131.123 101.507 130.81 102.08 130.37 102.6C129.943 103.107 129.41 103.507 128.77 103.8C128.143 104.093 127.43 104.24 126.63 104.24ZM126.65 95.92C126.023 95.92 125.47 96.1 124.99 96.46C124.51 96.8067 124.203 97.34 124.07 98.06H129.01C128.97 97.4067 128.73 96.8867 128.29 96.5C127.85 96.1133 127.303 95.92 126.65 95.92ZM138.323 104.24C137.39 104.24 136.556 104.013 135.823 103.56C135.09 103.107 134.51 102.487 134.083 101.7C133.656 100.913 133.443 100.02 133.443 99.02C133.443 98.02 133.656 97.1333 134.083 96.36C134.51 95.5733 135.09 94.96 135.823 94.52C136.556 94.0667 137.39 93.84 138.323 93.84C139.07 93.84 139.723 93.98 140.283 94.26C140.843 94.54 141.296 94.9333 141.643 95.44V89.6H144.203V104H141.923L141.643 102.58C141.323 103.02 140.896 103.407 140.363 103.74C139.843 104.073 139.163 104.24 138.323 104.24ZM138.863 102C139.69 102 140.363 101.727 140.883 101.18C141.416 100.62 141.683 99.9067 141.683 99.04C141.683 98.1733 141.416 97.4667 140.883 96.92C140.363 96.36 139.69 96.08 138.863 96.08C138.05 96.08 137.376 96.3533 136.843 96.9C136.31 97.4467 136.043 98.1533 136.043 99.02C136.043 99.8867 136.31 100.6 136.843 101.16C137.376 101.72 138.05 102 138.863 102ZM155.675 104.24C154.795 104.24 154.022 104.1 153.355 103.82C152.689 103.527 152.155 103.127 151.755 102.62C151.355 102.113 151.115 101.527 151.035 100.86H153.615C153.695 101.247 153.909 101.58 154.255 101.86C154.615 102.127 155.075 102.26 155.635 102.26C156.195 102.26 156.602 102.147 156.855 101.92C157.122 101.693 157.255 101.433 157.255 101.14C157.255 100.713 157.069 100.427 156.695 100.28C156.322 100.12 155.802 99.9667 155.135 99.82C154.709 99.7267 154.275 99.6133 153.835 99.48C153.395 99.3467 152.989 99.18 152.615 98.98C152.255 98.7667 151.962 98.5 151.735 98.18C151.509 97.8467 151.395 97.44 151.395 96.96C151.395 96.08 151.742 95.34 152.435 94.74C153.142 94.14 154.129 93.84 155.395 93.84C156.569 93.84 157.502 94.1133 158.195 94.66C158.902 95.2067 159.322 95.96 159.455 96.92H157.035C156.889 96.1867 156.335 95.82 155.375 95.82C154.895 95.82 154.522 95.9133 154.255 96.1C154.002 96.2867 153.875 96.52 153.875 96.8C153.875 97.0933 154.069 97.3267 154.455 97.5C154.842 97.6733 155.355 97.8333 155.995 97.98C156.689 98.14 157.322 98.32 157.895 98.52C158.482 98.7067 158.949 98.9933 159.295 99.38C159.642 99.7533 159.815 100.293 159.815 101C159.829 101.613 159.669 102.167 159.335 102.66C159.002 103.153 158.522 103.54 157.895 103.82C157.269 104.1 156.529 104.24 155.675 104.24ZM162.083 104V89.6H164.643V95.6C164.977 95.0533 165.423 94.6267 165.983 94.32C166.557 94 167.21 93.84 167.943 93.84C169.17 93.84 170.117 94.2267 170.783 95C171.463 95.7733 171.803 96.9067 171.803 98.4V104H169.263V98.64C169.263 97.7867 169.09 97.1333 168.743 96.68C168.41 96.2267 167.877 96 167.143 96C166.423 96 165.823 96.2533 165.343 96.76C164.877 97.2667 164.643 97.9733 164.643 98.88V104H162.083ZM179.011 104.24C178.051 104.24 177.185 104.02 176.411 103.58C175.651 103.14 175.045 102.533 174.591 101.76C174.151 100.973 173.931 100.067 173.931 99.04C173.931 98.0133 174.158 97.1133 174.611 96.34C175.065 95.5533 175.671 94.94 176.431 94.5C177.205 94.06 178.071 93.84 179.031 93.84C179.978 93.84 180.831 94.06 181.591 94.5C182.365 94.94 182.971 95.5533 183.411 96.34C183.865 97.1133 184.091 98.0133 184.091 99.04C184.091 100.067 183.865 100.973 183.411 101.76C182.971 102.533 182.365 103.14 181.591 103.58C180.818 104.02 179.958 104.24 179.011 104.24ZM179.011 102.02C179.678 102.02 180.258 101.773 180.751 101.28C181.245 100.773 181.491 100.027 181.491 99.04C181.491 98.0533 181.245 97.3133 180.751 96.82C180.258 96.3133 179.685 96.06 179.031 96.06C178.351 96.06 177.765 96.3133 177.271 96.82C176.791 97.3133 176.551 98.0533 176.551 99.04C176.551 100.027 176.791 100.773 177.271 101.28C177.765 101.773 178.345 102.02 179.011 102.02ZM186.38 108.4V94.08H188.66L188.94 95.5C189.26 95.06 189.68 94.6733 190.2 94.34C190.733 94.0067 191.42 93.84 192.26 93.84C193.193 93.84 194.027 94.0667 194.76 94.52C195.493 94.9733 196.073 95.5933 196.5 96.38C196.927 97.1667 197.14 98.06 197.14 99.06C197.14 100.06 196.927 100.953 196.5 101.74C196.073 102.513 195.493 103.127 194.76 103.58C194.027 104.02 193.193 104.24 192.26 104.24C191.513 104.24 190.86 104.1 190.3 103.82C189.74 103.54 189.287 103.147 188.94 102.64V108.4H186.38ZM191.72 102C192.533 102 193.207 101.727 193.74 101.18C194.273 100.633 194.54 99.9267 194.54 99.06C194.54 98.1933 194.273 97.48 193.74 96.92C193.207 96.36 192.533 96.08 191.72 96.08C190.893 96.08 190.213 96.36 189.68 96.92C189.16 97.4667 188.9 98.1733 188.9 99.04C188.9 99.9067 189.16 100.62 189.68 101.18C190.213 101.727 190.893 102 191.72 102ZM199.427 108.4V94.08H201.707L201.987 95.5C202.307 95.06 202.727 94.6733 203.247 94.34C203.78 94.0067 204.467 93.84 205.307 93.84C206.24 93.84 207.074 94.0667 207.807 94.52C208.54 94.9733 209.12 95.5933 209.547 96.38C209.974 97.1667 210.187 98.06 210.187 99.06C210.187 100.06 209.974 100.953 209.547 101.74C209.12 102.513 208.54 103.127 207.807 103.58C207.074 104.02 206.24 104.24 205.307 104.24C204.56 104.24 203.907 104.1 203.347 103.82C202.787 103.54 202.334 103.147 201.987 102.64V108.4H199.427ZM204.767 102C205.58 102 206.254 101.727 206.787 101.18C207.32 100.633 207.587 99.9267 207.587 99.06C207.587 98.1933 207.32 97.48 206.787 96.92C206.254 96.36 205.58 96.08 204.767 96.08C203.94 96.08 203.26 96.36 202.727 96.92C202.207 97.4667 201.947 98.1733 201.947 99.04C201.947 99.9067 202.207 100.62 202.727 101.18C203.26 101.727 203.94 102 204.767 102ZM213.854 92.54C213.387 92.54 213 92.4 212.694 92.12C212.4 91.84 212.254 91.4867 212.254 91.06C212.254 90.6333 212.4 90.2867 212.694 90.02C213 89.74 213.387 89.6 213.854 89.6C214.32 89.6 214.7 89.74 214.994 90.02C215.3 90.2867 215.454 90.6333 215.454 91.06C215.454 91.4867 215.3 91.84 214.994 92.12C214.7 92.4 214.32 92.54 213.854 92.54ZM212.574 104V94.08H215.134V104H212.574ZM217.806 104V94.08H220.066L220.266 95.76C220.573 95.1733 221.013 94.7067 221.586 94.36C222.173 94.0133 222.859 93.84 223.646 93.84C224.873 93.84 225.826 94.2267 226.506 95C227.186 95.7733 227.526 96.9067 227.526 98.4V104H224.966V98.64C224.966 97.7867 224.793 97.1333 224.446 96.68C224.099 96.2267 223.559 96 222.826 96C222.106 96 221.513 96.2533 221.046 96.76C220.593 97.2667 220.366 97.9733 220.366 98.88V104H217.806ZM234.174 101.04C233.694 101.04 233.247 100.987 232.834 100.88L232.094 101.62C232.32 101.74 232.627 101.84 233.014 101.92C233.4 102 234.027 102.08 234.894 102.16C236.214 102.28 237.174 102.593 237.774 103.1C238.374 103.607 238.674 104.307 238.674 105.2C238.674 105.787 238.514 106.34 238.194 106.86C237.874 107.393 237.38 107.82 236.714 108.14C236.047 108.473 235.194 108.64 234.154 108.64C232.74 108.64 231.6 108.373 230.734 107.84C229.867 107.32 229.434 106.533 229.434 105.48C229.434 104.587 229.867 103.813 230.734 103.16C230.467 103.04 230.234 102.913 230.034 102.78C229.847 102.647 229.68 102.507 229.534 102.36V101.9L231.274 100.06C230.5 99.38 230.114 98.5067 230.114 97.44C230.114 96.7733 230.274 96.1667 230.594 95.62C230.927 95.0733 231.394 94.64 231.994 94.32C232.594 94 233.32 93.84 234.174 93.84C234.734 93.84 235.254 93.92 235.734 94.08H239.494V95.64L237.794 95.76C238.06 96.2667 238.194 96.8267 238.194 97.44C238.194 98.1067 238.034 98.7133 237.714 99.26C237.394 99.8067 236.927 100.24 236.314 100.56C235.714 100.88 235 101.04 234.174 101.04ZM234.174 99.08C234.694 99.08 235.12 98.94 235.454 98.66C235.8 98.38 235.974 97.98 235.974 97.46C235.974 96.94 235.8 96.54 235.454 96.26C235.12 95.98 234.694 95.84 234.174 95.84C233.627 95.84 233.187 95.98 232.854 96.26C232.52 96.54 232.354 96.94 232.354 97.46C232.354 97.98 232.52 98.38 232.854 98.66C233.187 98.94 233.627 99.08 234.174 99.08ZM231.774 105.22C231.774 105.713 232 106.08 232.454 106.32C232.92 106.573 233.487 106.7 234.154 106.7C234.794 106.7 235.314 106.567 235.714 106.3C236.114 106.047 236.314 105.7 236.314 105.26C236.314 104.9 236.18 104.6 235.914 104.36C235.66 104.12 235.147 103.973 234.374 103.92C233.827 103.88 233.32 103.82 232.854 103.74C232.467 103.953 232.187 104.187 232.014 104.44C231.854 104.693 231.774 104.953 231.774 105.22ZM250.946 104.24C249.946 104.24 249.06 104.027 248.286 103.6C247.513 103.173 246.906 102.573 246.466 101.8C246.026 101.027 245.806 100.133 245.806 99.12C245.806 98.0933 246.02 97.18 246.446 96.38C246.886 95.58 247.486 94.96 248.246 94.52C249.02 94.0667 249.926 93.84 250.966 93.84C251.94 93.84 252.8 94.0533 253.546 94.48C254.293 94.9067 254.873 95.4933 255.286 96.24C255.713 96.9733 255.926 97.7933 255.926 98.7C255.926 98.8467 255.92 99 255.906 99.16C255.906 99.32 255.9 99.4867 255.886 99.66H248.346C248.4 100.433 248.666 101.04 249.146 101.48C249.64 101.92 250.233 102.14 250.926 102.14C251.446 102.14 251.88 102.027 252.226 101.8C252.586 101.56 252.853 101.253 253.026 100.88H255.626C255.44 101.507 255.126 102.08 254.686 102.6C254.26 103.107 253.726 103.507 253.086 103.8C252.46 104.093 251.746 104.24 250.946 104.24ZM250.966 95.92C250.34 95.92 249.786 96.1 249.306 96.46C248.826 96.8067 248.52 97.34 248.386 98.06H253.326C253.286 97.4067 253.046 96.8867 252.606 96.5C252.166 96.1133 251.62 95.92 250.966 95.92ZM256.456 104L260.056 99.04L256.456 94.08H259.196L261.716 97.6L264.216 94.08H266.976L263.356 99.04L266.976 104H264.216L261.716 100.48L259.196 104H256.456ZM268.607 108.4V94.08H270.887L271.167 95.5C271.487 95.06 271.907 94.6733 272.427 94.34C272.96 94.0067 273.647 93.84 274.487 93.84C275.42 93.84 276.253 94.0667 276.987 94.52C277.72 94.9733 278.3 95.5933 278.727 96.38C279.153 97.1667 279.367 98.06 279.367 99.06C279.367 100.06 279.153 100.953 278.727 101.74C278.3 102.513 277.72 103.127 276.987 103.58C276.253 104.02 275.42 104.24 274.487 104.24C273.74 104.24 273.087 104.1 272.527 103.82C271.967 103.54 271.513 103.147 271.167 102.64V108.4H268.607ZM273.947 102C274.76 102 275.433 101.727 275.967 101.18C276.5 100.633 276.767 99.9267 276.767 99.06C276.767 98.1933 276.5 97.48 275.967 96.92C275.433 96.36 274.76 96.08 273.947 96.08C273.12 96.08 272.44 96.36 271.907 96.92C271.387 97.4667 271.127 98.1733 271.127 99.04C271.127 99.9067 271.387 100.62 271.907 101.18C272.44 101.727 273.12 102 273.947 102ZM286.474 104.24C285.474 104.24 284.587 104.027 283.814 103.6C283.04 103.173 282.434 102.573 281.994 101.8C281.554 101.027 281.334 100.133 281.334 99.12C281.334 98.0933 281.547 97.18 281.974 96.38C282.414 95.58 283.014 94.96 283.774 94.52C284.547 94.0667 285.454 93.84 286.494 93.84C287.467 93.84 288.327 94.0533 289.074 94.48C289.82 94.9067 290.4 95.4933 290.814 96.24C291.24 96.9733 291.454 97.7933 291.454 98.7C291.454 98.8467 291.447 99 291.434 99.16C291.434 99.32 291.427 99.4867 291.414 99.66H283.874C283.927 100.433 284.194 101.04 284.674 101.48C285.167 101.92 285.76 102.14 286.454 102.14C286.974 102.14 287.407 102.027 287.754 101.8C288.114 101.56 288.38 101.253 288.554 100.88H291.154C290.967 101.507 290.654 102.08 290.214 102.6C289.787 103.107 289.254 103.507 288.614 103.8C287.987 104.093 287.274 104.24 286.474 104.24ZM286.494 95.92C285.867 95.92 285.314 96.1 284.834 96.46C284.354 96.8067 284.047 97.34 283.914 98.06H288.854C288.814 97.4067 288.574 96.8867 288.134 96.5C287.694 96.1133 287.147 95.92 286.494 95.92ZM293.607 104V94.08H295.887L296.127 95.94C296.487 95.3 296.973 94.7933 297.587 94.42C298.213 94.0333 298.947 93.84 299.787 93.84V96.54H299.067C298.507 96.54 298.007 96.6267 297.567 96.8C297.127 96.9733 296.78 97.2733 296.527 97.7C296.287 98.1267 296.167 98.72 296.167 99.48V104H293.607ZM302.916 92.54C302.45 92.54 302.063 92.4 301.756 92.12C301.463 91.84 301.316 91.4867 301.316 91.06C301.316 90.6333 301.463 90.2867 301.756 90.02C302.063 89.74 302.45 89.6 302.916 89.6C303.383 89.6 303.763 89.74 304.056 90.02C304.363 90.2867 304.516 90.6333 304.516 91.06C304.516 91.4867 304.363 91.84 304.056 92.12C303.763 92.4 303.383 92.54 302.916 92.54ZM301.636 104V94.08H304.196V104H301.636ZM311.688 104.24C310.688 104.24 309.802 104.027 309.028 103.6C308.255 103.173 307.648 102.573 307.208 101.8C306.768 101.027 306.548 100.133 306.548 99.12C306.548 98.0933 306.762 97.18 307.188 96.38C307.628 95.58 308.228 94.96 308.988 94.52C309.762 94.0667 310.668 93.84 311.708 93.84C312.682 93.84 313.542 94.0533 314.288 94.48C315.035 94.9067 315.615 95.4933 316.028 96.24C316.455 96.9733 316.668 97.7933 316.668 98.7C316.668 98.8467 316.662 99 316.648 99.16C316.648 99.32 316.642 99.4867 316.628 99.66H309.088C309.142 100.433 309.408 101.04 309.888 101.48C310.382 101.92 310.975 102.14 311.668 102.14C312.188 102.14 312.622 102.027 312.968 101.8C313.328 101.56 313.595 101.253 313.768 100.88H316.368C316.182 101.507 315.868 102.08 315.428 102.6C315.002 103.107 314.468 103.507 313.828 103.8C313.202 104.093 312.488 104.24 311.688 104.24ZM311.708 95.92C311.082 95.92 310.528 96.1 310.048 96.46C309.568 96.8067 309.262 97.34 309.128 98.06H314.068C314.028 97.4067 313.788 96.8867 313.348 96.5C312.908 96.1133 312.362 95.92 311.708 95.92ZM318.821 104V94.08H321.081L321.281 95.76C321.588 95.1733 322.028 94.7067 322.601 94.36C323.188 94.0133 323.875 93.84 324.661 93.84C325.888 93.84 326.841 94.2267 327.521 95C328.201 95.7733 328.541 96.9067 328.541 98.4V104H325.981V98.64C325.981 97.7867 325.808 97.1333 325.461 96.68C325.115 96.2267 324.575 96 323.841 96C323.121 96 322.528 96.2533 322.061 96.76C321.608 97.2667 321.381 97.9733 321.381 98.88V104H318.821ZM335.849 104.24C334.836 104.24 333.943 104.02 333.169 103.58C332.396 103.14 331.783 102.527 331.329 101.74C330.889 100.953 330.669 100.053 330.669 99.04C330.669 98.0267 330.889 97.1267 331.329 96.34C331.783 95.5533 332.396 94.94 333.169 94.5C333.943 94.06 334.836 93.84 335.849 93.84C337.116 93.84 338.183 94.1733 339.049 94.84C339.916 95.4933 340.469 96.4 340.709 97.56H338.009C337.876 97.08 337.609 96.7067 337.209 96.44C336.823 96.16 336.363 96.02 335.829 96.02C335.123 96.02 334.523 96.2867 334.029 96.82C333.536 97.3533 333.289 98.0933 333.289 99.04C333.289 99.9867 333.536 100.727 334.029 101.26C334.523 101.793 335.123 102.06 335.829 102.06C336.363 102.06 336.823 101.927 337.209 101.66C337.609 101.393 337.876 101.013 338.009 100.52H340.709C340.469 101.64 339.916 102.54 339.049 103.22C338.183 103.9 337.116 104.24 335.849 104.24ZM347.802 104.24C346.802 104.24 345.915 104.027 345.142 103.6C344.368 103.173 343.762 102.573 343.322 101.8C342.882 101.027 342.662 100.133 342.662 99.12C342.662 98.0933 342.875 97.18 343.302 96.38C343.742 95.58 344.342 94.96 345.102 94.52C345.875 94.0667 346.782 93.84 347.822 93.84C348.795 93.84 349.655 94.0533 350.402 94.48C351.148 94.9067 351.728 95.4933 352.142 96.24C352.568 96.9733 352.782 97.7933 352.782 98.7C352.782 98.8467 352.775 99 352.762 99.16C352.762 99.32 352.755 99.4867 352.742 99.66H345.202C345.255 100.433 345.522 101.04 346.002 101.48C346.495 101.92 347.088 102.14 347.782 102.14C348.302 102.14 348.735 102.027 349.082 101.8C349.442 101.56 349.708 101.253 349.882 100.88H352.482C352.295 101.507 351.982 102.08 351.542 102.6C351.115 103.107 350.582 103.507 349.942 103.8C349.315 104.093 348.602 104.24 347.802 104.24ZM347.822 95.92C347.195 95.92 346.642 96.1 346.162 96.46C345.682 96.8067 345.375 97.34 345.242 98.06H350.182C350.142 97.4067 349.902 96.8867 349.462 96.5C349.022 96.1133 348.475 95.92 347.822 95.92Z" fill="#EAEAEA"/>
<path d="M4.08082 55V16.5H18.3258C21.4058 16.5 23.9542 17.0133 25.9708 18.04C27.9875 19.0667 29.4908 20.4783 30.4808 22.275C31.4708 24.0717 31.9658 26.0883 31.9658 28.325C31.9658 30.4517 31.4892 32.4133 30.5358 34.21C29.5825 35.97 28.0975 37.4 26.0808 38.5C24.0642 39.5633 21.4792 40.095 18.3258 40.095H11.1208V55H4.08082ZM11.1208 34.375H17.8858C20.3425 34.375 22.1025 33.8433 23.1658 32.78C24.2658 31.68 24.8158 30.195 24.8158 28.325C24.8158 26.4183 24.2658 24.9333 23.1658 23.87C22.1025 22.77 20.3425 22.22 17.8858 22.22H11.1208V34.375ZM153.438 55.66C150.651 55.66 148.195 55.055 146.068 53.845C143.941 52.635 142.255 50.9483 141.008 48.785C139.798 46.6217 139.193 44.1467 139.193 41.36C139.193 38.5733 139.798 36.0983 141.008 33.935C142.255 31.7717 143.941 30.085 146.068 28.875C148.195 27.665 150.651 27.06 153.438 27.06C156.921 27.06 159.855 27.9767 162.238 29.81C164.621 31.6067 166.143 34.1 166.803 37.29H159.378C159.011 35.97 158.278 34.9433 157.178 34.21C156.115 33.44 154.85 33.055 153.383 33.055C151.44 33.055 149.79 33.7883 148.433 35.255C147.076 36.7217 146.398 38.7567 146.398 41.36C146.398 43.9633 147.076 45.9983 148.433 47.465C149.79 48.9317 151.44 49.665 153.383 49.665C154.85 49.665 156.115 49.2983 157.178 48.565C158.278 47.8317 159.011 46.7867 159.378 45.43H166.803C166.143 48.51 164.621 50.985 162.238 52.855C159.855 54.725 156.921 55.66 153.438 55.66ZM209.471 55V16.5H223.606C226.686 16.5 229.216 17.0317 231.196 18.095C233.213 19.1217 234.716 20.5333 235.706 22.33C236.696 24.09 237.191 26.0517 237.191 28.215C237.191 30.5617 236.568 32.7067 235.321 34.65C234.111 36.5933 232.205 38.005 229.601 38.885L237.576 55H229.491L222.341 39.82H216.511V55H209.471ZM216.511 34.65H223.166C225.513 34.65 227.236 34.0817 228.336 32.945C229.436 31.8083 229.986 30.305 229.986 28.435C229.986 26.6017 229.436 25.135 228.336 24.035C227.273 22.935 225.531 22.385 223.111 22.385H216.511V34.65ZM309 55.66C306.653 55.66 304.728 55.2933 303.225 54.56C301.721 53.79 300.603 52.7817 299.87 51.535C299.136 50.2883 298.77 48.9133 298.77 47.41C298.77 44.88 299.76 42.8267 301.74 41.25C303.72 39.6733 306.69 38.885 310.65 38.885H317.58V38.225C317.58 36.355 317.048 34.98 315.985 34.1C314.921 33.22 313.601 32.78 312.025 32.78C310.595 32.78 309.348 33.1283 308.285 33.825C307.221 34.485 306.561 35.475 306.305 36.795H299.43C299.613 34.815 300.273 33.0917 301.41 31.625C302.583 30.1583 304.086 29.04 305.92 28.27C307.753 27.4633 309.806 27.06 312.08 27.06C315.966 27.06 319.028 28.0317 321.265 29.975C323.501 31.9183 324.62 34.6683 324.62 38.225V55H318.625L317.965 50.6C317.158 52.0667 316.021 53.2767 314.555 54.23C313.125 55.1833 311.273 55.66 309 55.66ZM310.595 50.16C312.611 50.16 314.17 49.5 315.27 48.18C316.406 46.86 317.121 45.2283 317.415 43.285H311.42C309.55 43.285 308.211 43.6333 307.405 44.33C306.598 44.99 306.195 45.815 306.195 46.805C306.195 47.8683 306.598 48.6933 307.405 49.28C308.211 49.8667 309.275 50.16 310.595 50.16Z" fill="#6B81FC"/>
<path d="M37.324 55V27.72H43.594L44.254 32.835C45.244 31.075 46.5824 29.6817 48.269 28.655C49.9924 27.5917 52.009 27.06 54.319 27.06V34.485H52.339C50.799 34.485 49.424 34.7233 48.214 35.2C47.004 35.6767 46.0507 36.5017 45.354 37.675C44.694 38.8483 44.364 40.48 44.364 42.57V55H37.324Z" fill="#949FDE"/>
<path d="M72.2207 55.66C69.5807 55.66 67.1973 55.055 65.0707 53.845C62.9807 52.635 61.3123 50.9667 60.0657 48.84C58.8557 46.6767 58.2507 44.1833 58.2507 41.36C58.2507 38.5367 58.874 36.0617 60.1207 33.935C61.3673 31.7717 63.0357 30.085 65.1257 28.875C67.2523 27.665 69.6357 27.06 72.2757 27.06C74.879 27.06 77.2257 27.665 79.3157 28.875C81.4423 30.085 83.1107 31.7717 84.3207 33.935C85.5673 36.0617 86.1907 38.5367 86.1907 41.36C86.1907 44.1833 85.5673 46.6767 84.3207 48.84C83.1107 50.9667 81.4423 52.635 79.3157 53.845C77.189 55.055 74.824 55.66 72.2207 55.66ZM72.2207 49.555C74.054 49.555 75.649 48.8767 77.0057 47.52C78.3623 46.1267 79.0407 44.0733 79.0407 41.36C79.0407 38.6467 78.3623 36.6117 77.0057 35.255C75.649 33.8617 74.0723 33.165 72.2757 33.165C70.4057 33.165 68.7923 33.8617 67.4357 35.255C66.1157 36.6117 65.4557 38.6467 65.4557 41.36C65.4557 44.0733 66.1157 46.1267 67.4357 47.52C68.7923 48.8767 70.3873 49.555 72.2207 49.555Z" fill="#D7DAE9"/>
<path d="M96.3902 23.485C95.1068 23.485 94.0435 23.1 93.2002 22.33C92.3935 21.56 91.9902 20.5883 91.9902 19.415C91.9902 18.2417 92.3935 17.2883 93.2002 16.555C94.0435 15.785 95.1068 15.4 96.3902 15.4C97.6735 15.4 98.7185 15.785 99.5252 16.555C100.368 17.2883 100.79 18.2417 100.79 19.415C100.79 20.5883 100.368 21.56 99.5252 22.33C98.7185 23.1 97.6735 23.485 96.3902 23.485ZM87.3152 67.1V61.105H89.4602C90.6702 61.105 91.5318 60.8667 92.0452 60.39C92.5585 59.9133 92.8152 59.1067 92.8152 57.97V27.72H99.8552V57.97C99.8552 61.27 99.0118 63.6167 97.3252 65.01C95.6752 66.4033 93.4202 67.1 90.5602 67.1H87.3152Z" fill="#3A499E"/>
<path d="M120.457 55.66C117.707 55.66 115.269 55.0733 113.142 53.9C111.015 52.7267 109.347 51.0767 108.137 48.95C106.927 46.8233 106.322 44.3667 106.322 41.58C106.322 38.7567 106.909 36.245 108.082 34.045C109.292 31.845 110.942 30.14 113.032 28.93C115.159 27.6833 117.652 27.06 120.512 27.06C123.189 27.06 125.554 27.6467 127.607 28.82C129.66 29.9933 131.255 31.6067 132.392 33.66C133.565 35.6767 134.152 37.9317 134.152 40.425C134.152 40.8283 134.134 41.25 134.097 41.69C134.097 42.13 134.079 42.5883 134.042 43.065H113.307C113.454 45.1917 114.187 46.86 115.507 48.07C116.864 49.28 118.495 49.885 120.402 49.885C121.832 49.885 123.024 49.5733 123.977 48.95C124.967 48.29 125.7 47.4467 126.177 46.42H133.327C132.814 48.1433 131.952 49.72 130.742 51.15C129.569 52.5433 128.102 53.6433 126.342 54.45C124.619 55.2567 122.657 55.66 120.457 55.66ZM120.512 32.78C118.789 32.78 117.267 33.275 115.947 34.265C114.627 35.2183 113.784 36.685 113.417 38.665H127.002C126.892 36.8683 126.232 35.4383 125.022 34.375C123.812 33.3117 122.309 32.78 120.512 32.78Z" fill="#A6AAC1"/>
<path d="M185.207 55C182.347 55 180.055 54.3033 178.332 52.91C176.608 51.5167 175.747 49.0417 175.747 45.485V33.605H171.072V27.72H175.747L176.572 20.405H182.787V27.72H190.157V33.605H182.787V45.54C182.787 46.86 183.062 47.7767 183.612 48.29C184.198 48.7667 185.188 49.005 186.582 49.005H189.992V55H185.207Z" fill="#DDE1F7"/>
<path d="M256.829 55.66C254.079 55.66 251.641 55.0733 249.514 53.9C247.387 52.7267 245.719 51.0767 244.509 48.95C243.299 46.8233 242.694 44.3667 242.694 41.58C242.694 38.7567 243.281 36.245 244.454 34.045C245.664 31.845 247.314 30.14 249.404 28.93C251.531 27.6833 254.024 27.06 256.884 27.06C259.561 27.06 261.926 27.6467 263.979 28.82C266.032 29.9933 267.627 31.6067 268.764 33.66C269.937 35.6767 270.524 37.9317 270.524 40.425C270.524 40.8283 270.506 41.25 270.469 41.69C270.469 42.13 270.451 42.5883 270.414 43.065H249.679C249.826 45.1917 250.559 46.86 251.879 48.07C253.236 49.28 254.867 49.885 256.774 49.885C258.204 49.885 259.396 49.5733 260.349 48.95C261.339 48.29 262.072 47.4467 262.549 46.42H269.699C269.186 48.1433 268.324 49.72 267.114 51.15C265.941 52.5433 264.474 53.6433 262.714 54.45C260.991 55.2567 259.029 55.66 256.829 55.66ZM256.884 32.78C255.161 32.78 253.639 33.275 252.319 34.265C250.999 35.2183 250.156 36.685 249.789 38.665H263.374C263.264 36.8683 262.604 35.4383 261.394 34.375C260.184 33.3117 258.681 32.78 256.884 32.78Z" fill="#6773B3"/>
<path d="M288.6 55C285.74 55 283.448 54.3033 281.725 52.91C280.002 51.5167 279.14 49.0417 279.14 45.485V33.605H274.465V27.72H279.14L279.965 20.405H286.18V27.72H293.55V33.605H286.18V45.54C286.18 46.86 286.455 47.7767 287.005 48.29C287.592 48.7667 288.582 49.005 289.975 49.005H293.385V55H288.6Z" fill="#E1E6FE"/>
<path d="M335.133 23.485C333.849 23.485 332.786 23.1 331.943 22.33C331.136 21.56 330.733 20.5883 330.733 19.415C330.733 18.2417 331.136 17.2883 331.943 16.555C332.786 15.785 333.849 15.4 335.133 15.4C336.416 15.4 337.461 15.785 338.268 16.555C339.111 17.2883 339.533 18.2417 339.533 19.415C339.533 20.5883 339.111 21.56 338.268 22.33C337.461 23.1 336.416 23.485 335.133 23.485ZM331.613 55V27.72H338.653V55H331.613Z" fill="#4F5995"/>
<path d="M346.001 55V15.4H353.041V55H346.001Z" fill="#96A6FF"/>
</svg>
